<svg xmlns="http://www.w3.org/2000/svg" xmlns:xlink="http://www.w3.org/1999/xlink" width="500" zoomAndPan="magnify" viewBox="0 0 375 374.999991" height="500" preserveAspectRatio="xMidYMid meet" version="1.0"><defs><clipPath id="4df88adf00"><path d="M 62 34 L 274 34 L 274 342.582031 L 62 342.582031 Z M 62 34 " clip-rule="nonzero"/></clipPath></defs><path fill="#b3b1b0" d="M 320.066406 218.832031 C 320.066406 209.3125 312.816406 201.5625 303.867188 201.5625 L 174.46875 201.5625 C 165.519531 201.5625 158.269531 209.3125 158.269531 218.832031 C 158.269531 228.351562 165.507812 236.101562 174.46875 236.101562 L 303.867188 236.101562 C 312.816406 236.113281 320.066406 228.367188 320.066406 218.832031 Z M 320.066406 218.832031 " fill-opacity="1" fill-rule="nonzero"/><g clip-path="url(#4df88adf00)"><path fill="#e7a41f" d="M 81.972656 268 L 137.425781 323.953125 C 149.9375 336.515625 167.230469 342.582031 186.324219 342.582031 C 205.417969 342.582031 222.710938 336.015625 235.246094 323.414062 L 268.519531 289.578125 C 275.078125 282.984375 274.847656 272.066406 268.019531 265.203125 C 261.191406 258.335938 250.339844 258.105469 243.796875 264.703125 L 209.390625 298.152344 C 203.449219 304.144531 195.222656 306.644531 186.132812 306.644531 C 177.039062 306.644531 168.824219 304.144531 162.859375 298.152344 L 107.597656 242.171875 C 101.644531 236.179688 98.648438 227.414062 98.648438 218.269531 C 98.648438 209.121094 101.644531 200.855469 107.597656 194.863281 L 162.691406 138.667969 C 168.644531 132.675781 177.039062 130.390625 186.117188 130.390625 C 195.195312 130.390625 203.425781 132.894531 209.378906 138.886719 L 243.785156 172.320312 C 250.339844 178.929688 261.191406 178.699219 268.019531 171.832031 C 274.847656 164.957031 275.078125 154.039062 268.519531 147.441406 L 235.246094 113.621094 C 226.902344 105.332031 216.332031 99.300781 204.492188 96.558594 L 204.054688 96.46875 L 235.515625 64.351562 C 242.097656 57.757812 241.867188 46.824219 235.039062 39.960938 C 228.214844 33.097656 217.347656 32.878906 210.777344 39.472656 L 81.972656 169.0625 C 69.460938 181.660156 62.917969 199.046875 62.917969 218.269531 C 62.917969 237.488281 69.460938 255.425781 81.972656 268 Z M 81.972656 268 " fill-opacity="1" fill-rule="nonzero"/></g><path fill="#070706" d="M 141.542969 327.367188 C 139.277344 326.121094 137.273438 324.554688 135.445312 322.734375 C 118.386719 305.632812 101.246094 288.605469 84.222656 271.449219 C 58.648438 245.6875 54.625 208.105469 74.117188 177.53125 C 77.136719 172.796875 80.917969 168.625 84.90625 164.648438 C 126.152344 123.410156 167.386719 82.160156 208.632812 40.921875 C 216.667969 32.890625 227.890625 32.558594 235.363281 40.0625 C 242.5625 47.289062 242.136719 58.730469 234.359375 66.570312 C 224.472656 76.527344 214.570312 86.460938 204.671875 96.402344 C 204.144531 97.96875 202.871094 98.96875 201.777344 100.085938 C 190.683594 111.324219 179.277344 122.269531 168.335938 133.675781 C 166.910156 135.164062 164.96875 136.0625 163.554688 137.589844 C 145.257812 155.847656 126.742188 173.898438 108.703125 192.402344 C 94.109375 207.375 94.597656 230.097656 109.578125 245.351562 C 126.394531 262.496094 143.507812 279.355469 160.507812 296.339844 C 161.367188 297.203125 162.253906 298.035156 163.128906 298.882812 C 169.144531 302.769531 169.222656 314.921875 165.480469 320.320312 C 161.355469 326.289062 155.96875 329.945312 148.34375 329.664062 C 145.785156 329.585938 143.675781 328.558594 141.542969 327.367188 Z M 141.542969 327.367188 " fill-opacity="1" fill-rule="nonzero"/></svg>