<svg xmlns="http://www.w3.org/2000/svg" xmlns:xlink="http://www.w3.org/1999/xlink" width="1080" zoomAndPan="magnify" viewBox="0 0 810 809.999993" height="1080" preserveAspectRatio="xMidYMid meet" version="1.0"><defs><g/></defs><g fill="#000000" fill-opacity="1"><g transform="translate(403.199314, 617.039572)"><g><path d="M -49.75 62.34375 C -58.695312 60.726562 -65.347656 57.316406 -69.703125 52.109375 C -74.066406 46.910156 -75.570312 40.566406 -74.21875 33.078125 C -72.863281 25.566406 -69.234375 20.132812 -63.328125 16.78125 C -57.429688 13.4375 -50.007812 12.570312 -41.0625 14.1875 L -23.984375 17.265625 L -20.21875 -3.640625 L -10.359375 -1.875 L -22.8125 67.1875 Z M -42.3125 22.828125 C -48.5625 21.703125 -53.566406 22.171875 -57.328125 24.234375 C -61.097656 26.304688 -63.4375 29.847656 -64.34375 34.859375 C -65.238281 39.847656 -64.285156 43.972656 -61.484375 47.234375 C -58.679688 50.492188 -54.15625 52.6875 -47.90625 53.8125 L -31.125 56.84375 L -25.53125 25.859375 Z M -42.3125 22.828125 "/></g></g></g><g fill="#000000" fill-opacity="1"><g transform="translate(339.725478, 604.664634)"><g><path d="M -34.421875 33.25 C -37.191406 35.414062 -40.394531 36.582031 -44.03125 36.75 C -47.664062 36.914062 -51.628906 36.066406 -55.921875 34.203125 L -52.21875 25.65625 C -51.75 25.914062 -51.082031 26.234375 -50.21875 26.609375 C -45.445312 28.679688 -41.078125 28.882812 -37.109375 27.21875 C -33.148438 25.550781 -30.023438 22.082031 -27.734375 16.8125 L -17.203125 -7.46875 L -8.375 -3.625 L -29.515625 45.109375 L -37.96875 41.4375 Z M -34.421875 33.25 "/></g></g></g><g fill="#000000" fill-opacity="1"><g transform="translate(307.520905, 592.806941)"><g><path d="M -25.546875 -19.078125 C -21.253906 -15.992188 -18.082031 -12.273438 -16.03125 -7.921875 C -13.976562 -3.566406 -13.1875 0.96875 -13.65625 5.6875 C -14.125 10.414062 -15.875 14.894531 -18.90625 19.125 C -21.957031 23.363281 -25.644531 26.457031 -29.96875 28.40625 C -34.289062 30.363281 -38.832031 31.050781 -43.59375 30.46875 C -48.351562 29.894531 -52.878906 28.066406 -57.171875 24.984375 C -61.460938 21.910156 -64.628906 18.21875 -66.671875 13.90625 C -68.722656 9.59375 -69.515625 5.070312 -69.046875 0.34375 C -68.585938 -4.375 -66.832031 -8.851562 -63.78125 -13.09375 C -60.75 -17.320312 -57.066406 -20.410156 -52.734375 -22.359375 C -48.410156 -24.316406 -43.867188 -25.023438 -39.109375 -24.484375 C -34.359375 -23.953125 -29.835938 -22.148438 -25.546875 -19.078125 Z M -30.453125 -12.25 C -33.234375 -14.238281 -36.175781 -15.382812 -39.28125 -15.6875 C -42.394531 -15.988281 -45.40625 -15.429688 -48.3125 -14.015625 C -51.21875 -12.609375 -53.738281 -10.410156 -55.875 -7.421875 C -58.019531 -4.429688 -59.296875 -1.335938 -59.703125 1.859375 C -60.109375 5.054688 -59.664062 8.070312 -58.375 10.90625 C -57.082031 13.738281 -55.046875 16.148438 -52.265625 18.140625 C -49.492188 20.128906 -46.554688 21.285156 -43.453125 21.609375 C -40.359375 21.929688 -37.347656 21.398438 -34.421875 20.015625 C -31.492188 18.628906 -28.957031 16.441406 -26.8125 13.453125 C -24.675781 10.460938 -23.414062 7.351562 -23.03125 4.125 C -22.644531 0.90625 -23.09375 -2.128906 -24.375 -4.984375 C -25.65625 -7.835938 -27.679688 -10.257812 -30.453125 -12.25 Z M -30.453125 -12.25 "/></g></g></g><g fill="#000000" fill-opacity="1"><g transform="translate(261.878093, 561.942572)"><g><path d="M -78.984375 -13.390625 L -43.21875 -42.171875 C -35.976562 -48.003906 -29.179688 -50.515625 -22.828125 -49.703125 C -16.472656 -48.890625 -10.425781 -44.914062 -4.6875 -37.78125 C -1.550781 -33.875 0.90625 -29.722656 2.6875 -25.328125 C 4.476562 -20.941406 5.265625 -16.859375 5.046875 -13.078125 L -3.609375 -12.015625 C -3.503906 -15.285156 -4.109375 -18.722656 -5.421875 -22.328125 C -6.742188 -25.941406 -8.617188 -29.253906 -11.046875 -32.265625 C -14.953125 -37.109375 -18.984375 -39.769531 -23.140625 -40.25 C -27.296875 -40.726562 -31.71875 -39.078125 -36.40625 -35.296875 L -39.6875 -32.671875 C -36.125 -32.617188 -32.769531 -31.734375 -29.625 -30.015625 C -26.488281 -28.304688 -23.703125 -25.9375 -21.265625 -22.90625 C -18.078125 -18.957031 -16.039062 -14.695312 -15.15625 -10.125 C -14.28125 -5.5625 -14.628906 -1.144531 -16.203125 3.125 C -17.785156 7.40625 -20.523438 11.113281 -24.421875 14.25 C -28.328125 17.394531 -32.535156 19.28125 -37.046875 19.90625 C -41.566406 20.539062 -45.945312 19.925781 -50.1875 18.0625 C -54.425781 16.195312 -58.140625 13.289062 -61.328125 9.34375 C -63.835938 6.21875 -65.597656 2.851562 -66.609375 -0.75 C -67.628906 -4.351562 -67.710938 -7.914062 -66.859375 -11.4375 L -73.265625 -6.28125 Z M -28.515625 -18.484375 C -30.703125 -21.203125 -33.234375 -23.175781 -36.109375 -24.40625 C -38.984375 -25.644531 -41.941406 -26.046875 -44.984375 -25.609375 C -48.035156 -25.179688 -50.863281 -23.921875 -53.46875 -21.828125 C -57.476562 -18.597656 -59.648438 -14.660156 -59.984375 -10.015625 C -60.316406 -5.367188 -58.804688 -0.960938 -55.453125 3.203125 C -52.054688 7.421875 -48.050781 9.859375 -43.4375 10.515625 C -38.832031 11.179688 -34.523438 9.898438 -30.515625 6.671875 C -27.910156 4.578125 -26.070312 2.09375 -25 -0.78125 C -23.925781 -3.65625 -23.6875 -6.632812 -24.28125 -9.71875 C -24.882812 -12.8125 -26.296875 -15.734375 -28.515625 -18.484375 Z M -28.515625 -18.484375 "/></g></g></g><g fill="#000000" fill-opacity="1"><g transform="translate(223.783617, 513.426838)"><g><path d="M -47.765625 2.859375 C -51.273438 2.703125 -54.460938 1.503906 -57.328125 -0.734375 C -60.203125 -2.972656 -62.664062 -6.195312 -64.71875 -10.40625 L -56.34375 -14.484375 C -56.164062 -13.984375 -55.867188 -13.3125 -55.453125 -12.46875 C -53.171875 -7.78125 -49.984375 -4.78125 -45.890625 -3.46875 C -41.796875 -2.15625 -37.164062 -2.753906 -32 -5.265625 L -8.203125 -16.859375 L -4 -8.203125 L -51.765625 15.0625 L -55.796875 6.765625 Z M -47.765625 2.859375 "/></g></g></g><g fill="#000000" fill-opacity="1"><g transform="translate(207.196089, 483.16186)"><g><path d="M -58.96875 -14.46875 C -60.769531 -21.59375 -60.398438 -27.492188 -57.859375 -32.171875 C -55.328125 -36.847656 -50.585938 -40.0625 -43.640625 -41.8125 L -12.546875 -49.671875 L -10.3125 -40.828125 L -17.109375 -39.109375 C -14.328125 -38.160156 -11.9375 -36.398438 -9.9375 -33.828125 C -7.945312 -31.265625 -6.453125 -28.003906 -5.453125 -24.046875 C -4.003906 -18.273438 -4.234375 -13.304688 -6.140625 -9.140625 C -8.046875 -4.972656 -11.269531 -2.316406 -15.8125 -1.171875 C -20.351562 -0.0234375 -24.414062 -0.753906 -28 -3.359375 C -31.582031 -5.972656 -34.28125 -10.878906 -36.09375 -18.078125 L -39.828125 -32.859375 L -41.6875 -32.390625 C -45.707031 -31.367188 -48.488281 -29.421875 -50.03125 -26.546875 C -51.582031 -23.679688 -51.785156 -19.984375 -50.640625 -15.453125 C -49.867188 -12.398438 -48.613281 -9.539062 -46.875 -6.875 C -45.132812 -4.21875 -43.164062 -2.09375 -40.96875 -0.5 L -46.984375 5.15625 C -49.796875 3.039062 -52.234375 0.28125 -54.296875 -3.125 C -56.367188 -6.539062 -57.925781 -10.320312 -58.96875 -14.46875 Z M -13.046875 -23.796875 C -13.941406 -27.359375 -15.507812 -30.234375 -17.75 -32.421875 C -20 -34.609375 -22.722656 -35.925781 -25.921875 -36.375 L -33.125 -34.546875 L -29.484375 -20.15625 C -27.492188 -12.25 -23.84375 -8.96875 -18.53125 -10.3125 C -15.9375 -10.96875 -14.144531 -12.488281 -13.15625 -14.875 C -12.175781 -17.257812 -12.140625 -20.234375 -13.046875 -23.796875 Z M -13.046875 -23.796875 "/></g></g></g><g fill="#000000" fill-opacity="1"><g transform="translate(189.489155, 435.899486)"><g><path d="M -46.59375 -80.125 C -45.988281 -86.78125 -43.578125 -91.878906 -39.359375 -95.421875 C -35.148438 -98.972656 -29.253906 -100.40625 -21.671875 -99.71875 L 8.78125 -96.953125 L 7.921875 -87.359375 L -21.421875 -90.015625 C -26.546875 -90.484375 -30.515625 -89.648438 -33.328125 -87.515625 C -36.140625 -85.390625 -37.75 -82.132812 -38.15625 -77.75 C -38.59375 -72.894531 -37.425781 -68.894531 -34.65625 -65.75 C -31.894531 -62.613281 -27.6875 -60.789062 -22.03125 -60.28125 L 5.234375 -57.8125 L 4.375 -48.21875 L -24.96875 -50.875 C -30.09375 -51.34375 -34.0625 -50.507812 -36.875 -48.375 C -39.6875 -46.25 -41.296875 -42.992188 -41.703125 -38.609375 C -42.140625 -33.753906 -40.972656 -29.753906 -38.203125 -26.609375 C -35.441406 -23.472656 -31.234375 -21.648438 -25.578125 -21.140625 L 1.6875 -18.671875 L 0.828125 -9.09375 L -52.078125 -13.890625 L -51.25 -23.0625 L -43.375 -22.34375 C -45.925781 -24.519531 -47.773438 -27.238281 -48.921875 -30.5 C -50.078125 -33.757812 -50.472656 -37.382812 -50.109375 -41.375 C -49.734375 -45.507812 -48.566406 -49.097656 -46.609375 -52.140625 C -44.660156 -55.179688 -42.007812 -57.425781 -38.65625 -58.875 C -41.53125 -61.144531 -43.671875 -64.140625 -45.078125 -67.859375 C -46.492188 -71.578125 -47 -75.664062 -46.59375 -80.125 Z M -46.59375 -80.125 "/></g></g></g><g fill="#000000" fill-opacity="1"><g transform="translate(195.180416, 342.626154)"><g><path d="M -8.8125 -92.265625 C -5.488281 -98.054688 -1.171875 -101.679688 4.140625 -103.140625 C 9.460938 -104.597656 15.425781 -103.429688 22.03125 -99.640625 L 48.53125 -84.390625 L 43.734375 -76.046875 L 18.1875 -90.734375 C 13.726562 -93.296875 9.773438 -94.195312 6.328125 -93.4375 C 2.878906 -92.675781 0.0546875 -90.390625 -2.140625 -86.578125 C -4.566406 -82.347656 -5.175781 -78.226562 -3.96875 -74.21875 C -2.769531 -70.207031 0.285156 -66.785156 5.203125 -63.953125 L 28.9375 -50.3125 L 24.140625 -41.96875 L -1.40625 -56.65625 C -5.863281 -59.21875 -9.8125 -60.117188 -13.25 -59.359375 C -16.695312 -58.609375 -19.519531 -56.320312 -21.71875 -52.5 C -24.15625 -48.28125 -24.769531 -44.164062 -23.5625 -40.15625 C -22.363281 -36.144531 -19.304688 -32.722656 -14.390625 -29.890625 L 9.34375 -16.25 L 4.546875 -7.90625 L -41.5 -34.390625 L -36.90625 -42.390625 L -30.0625 -38.453125 C -31.46875 -41.492188 -32.007812 -44.734375 -31.6875 -48.171875 C -31.363281 -51.609375 -30.207031 -55.0625 -28.21875 -58.53125 C -26.144531 -62.125 -23.582031 -64.894531 -20.53125 -66.84375 C -17.488281 -68.789062 -14.144531 -69.722656 -10.5 -69.640625 C -12.15625 -72.910156 -12.847656 -76.523438 -12.578125 -80.484375 C -12.304688 -84.453125 -11.050781 -88.378906 -8.8125 -92.265625 Z M -8.8125 -92.265625 "/></g></g></g><g fill="#000000" fill-opacity="1"><g transform="translate(244.106434, 261.397306)"><g><path d="M 26.296875 -57.125 C 26.785156 -56.5625 27.367188 -55.773438 28.046875 -54.765625 L -4.703125 -26.734375 C -1.191406 -23.566406 2.816406 -22.046875 7.328125 -22.171875 C 11.847656 -22.304688 16.085938 -24.066406 20.046875 -27.453125 C 24.867188 -31.585938 27.359375 -36.539062 27.515625 -42.3125 L 35.59375 -41.046875 C 35.582031 -37.347656 34.695312 -33.773438 32.9375 -30.328125 C 31.1875 -26.890625 28.632812 -23.738281 25.28125 -20.875 C 21.019531 -17.21875 16.488281 -14.851562 11.6875 -13.78125 C 6.894531 -12.707031 2.25 -12.96875 -2.25 -14.5625 C -6.757812 -16.164062 -10.707031 -18.945312 -14.09375 -22.90625 C -17.4375 -26.8125 -19.578125 -31.085938 -20.515625 -35.734375 C -21.460938 -40.390625 -21.148438 -44.910156 -19.578125 -49.296875 C -18.003906 -53.679688 -15.289062 -57.519531 -11.4375 -60.8125 C -7.582031 -64.125 -3.394531 -66.195312 1.125 -67.03125 C 5.644531 -67.863281 10.101562 -67.429688 14.5 -65.734375 C 18.894531 -64.046875 22.828125 -61.175781 26.296875 -57.125 Z M -6.15625 -54.640625 C -9.664062 -51.640625 -11.679688 -48.066406 -12.203125 -43.921875 C -12.734375 -39.773438 -11.734375 -35.800781 -9.203125 -32 L 16.6875 -54.171875 C 13.382812 -57.222656 9.625 -58.816406 5.40625 -58.953125 C 1.195312 -59.085938 -2.65625 -57.648438 -6.15625 -54.640625 Z M -6.15625 -54.640625 "/></g></g></g><g fill="#000000" fill-opacity="1"><g transform="translate(285.653187, 226.252056)"><g><path d="M -5.078125 -47.578125 C -5.078125 -51.097656 -4.023438 -54.34375 -1.921875 -57.3125 C 0.171875 -60.289062 3.269531 -62.898438 7.375 -65.140625 L 11.84375 -56.953125 C 11.34375 -56.753906 10.679688 -56.429688 9.859375 -55.984375 C 5.285156 -53.492188 2.4375 -50.171875 1.3125 -46.015625 C 0.195312 -41.859375 1.015625 -37.257812 3.765625 -32.21875 L 16.453125 -8.984375 L 8.015625 -4.375 L -17.4375 -51 L -9.359375 -55.40625 Z M -5.078125 -47.578125 "/></g></g></g><g fill="#000000" fill-opacity="1"><g transform="translate(318.032595, 208.931485)"><g><path d="M 10.875 -3.578125 C 9.132812 -2.898438 7.398438 -2.925781 5.671875 -3.65625 C 3.953125 -4.394531 2.734375 -5.695312 2.015625 -7.5625 C 1.316406 -9.363281 1.359375 -11.109375 2.140625 -12.796875 C 2.921875 -14.492188 4.179688 -15.679688 5.921875 -16.359375 C 7.660156 -17.035156 9.347656 -17.015625 10.984375 -16.296875 C 12.628906 -15.578125 13.816406 -14.28125 14.546875 -12.40625 C 15.265625 -10.539062 15.253906 -8.765625 14.515625 -7.078125 C 13.773438 -5.398438 12.5625 -4.234375 10.875 -3.578125 Z M 10.875 -3.578125 "/></g></g></g><g fill="#000000" fill-opacity="1"><g transform="translate(329.180845, 196.710716)"><g><path d="M 102.640625 -80.09375 L 85.84375 -8.046875 L 75.359375 -7.0625 L 51.0625 -61.078125 L 37.234375 -3.484375 L 26.5625 -2.484375 L -3.359375 -70.15625 L 6.921875 -71.125 L 31.125 -16.09375 L 45.453125 -74.734375 L 54.640625 -75.59375 L 79.234375 -20.3125 L 93.171875 -79.203125 Z M 102.640625 -80.09375 "/></g></g></g><g fill="#000000" fill-opacity="1"><g transform="translate(430.191806, 189.777688)"><g><path d="M 61.984375 -10.609375 C 61.796875 -9.890625 61.476562 -8.972656 61.03125 -7.859375 L 19.390625 -18.984375 C 18.765625 -14.316406 19.78125 -10.15625 22.4375 -6.5 C 25.09375 -2.84375 28.9375 -0.34375 33.96875 1 C 40.101562 2.632812 45.597656 1.882812 50.453125 -1.25 L 53.984375 6.125 C 50.929688 8.21875 47.484375 9.507812 43.640625 10 C 39.804688 10.5 35.765625 10.179688 31.515625 9.046875 C 26.085938 7.597656 21.570312 5.195312 17.96875 1.84375 C 14.363281 -1.5 11.953125 -5.476562 10.734375 -10.09375 C 9.515625 -14.71875 9.578125 -19.546875 10.921875 -24.578125 C 12.253906 -29.554688 14.566406 -33.75 17.859375 -37.15625 C 21.160156 -40.5625 25.0625 -42.851562 29.5625 -44.03125 C 34.070312 -45.207031 38.78125 -45.144531 43.6875 -43.84375 C 48.59375 -42.53125 52.664062 -40.25 55.90625 -37 C 59.144531 -33.75 61.3125 -29.828125 62.40625 -25.234375 C 63.507812 -20.648438 63.367188 -15.773438 61.984375 -10.609375 Z M 41.578125 -36 C 37.117188 -37.1875 33.023438 -36.820312 29.296875 -34.90625 C 25.578125 -33 22.875 -29.921875 21.1875 -25.671875 L 54.125 -16.875 C 54.769531 -21.34375 53.953125 -25.347656 51.671875 -28.890625 C 49.398438 -32.429688 46.035156 -34.800781 41.578125 -36 Z M 41.578125 -36 "/></g></g></g><g fill="#000000" fill-opacity="1"><g transform="translate(481.754188, 201.927465)"><g><path d="M 59.171875 -27.703125 C 63.617188 -25.117188 67.035156 -21.816406 69.421875 -17.796875 C 71.816406 -13.785156 72.984375 -9.441406 72.921875 -4.765625 C 72.867188 -0.0859375 71.503906 4.5625 68.828125 9.1875 C 66.140625 13.8125 62.769531 17.328125 58.71875 19.734375 C 54.675781 22.140625 50.316406 23.300781 45.640625 23.21875 C 40.972656 23.132812 36.414062 21.800781 31.96875 19.21875 C 28.550781 17.238281 25.8125 14.765625 23.75 11.796875 C 21.6875 8.828125 20.46875 5.535156 20.09375 1.921875 L 15.875 9.203125 L 7.890625 4.578125 L 45.203125 -59.78125 L 53.53125 -54.953125 L 38.84375 -29.625 C 42.101562 -30.976562 45.476562 -31.472656 48.96875 -31.109375 C 52.46875 -30.742188 55.867188 -29.609375 59.171875 -27.703125 Z M 35.484375 11.53125 C 38.441406 13.25 41.484375 14.101562 44.609375 14.09375 C 47.734375 14.09375 50.6875 13.257812 53.46875 11.59375 C 56.257812 9.925781 58.578125 7.5 60.421875 4.3125 C 62.265625 1.132812 63.21875 -2.070312 63.28125 -5.3125 C 63.34375 -8.5625 62.585938 -11.53125 61.015625 -14.21875 C 59.453125 -16.90625 57.191406 -19.109375 54.234375 -20.828125 C 51.347656 -22.492188 48.332031 -23.347656 45.1875 -23.390625 C 42.050781 -23.429688 39.101562 -22.609375 36.34375 -20.921875 C 33.59375 -19.242188 31.296875 -16.816406 29.453125 -13.640625 C 27.609375 -10.453125 26.640625 -7.242188 26.546875 -4.015625 C 26.453125 -0.785156 27.195312 2.191406 28.78125 4.921875 C 30.363281 7.660156 32.597656 9.863281 35.484375 11.53125 Z M 35.484375 11.53125 "/></g></g></g><g fill="#000000" fill-opacity="1"><g transform="translate(534.526323, 234.106102)"><g/></g></g><g fill="#000000" fill-opacity="1"><g transform="translate(552.17826, 244.3697)"><g><path d="M 62.984375 -32.703125 L 80.34375 -8.765625 C 84.707031 -2.753906 87.382812 3.429688 88.375 9.796875 C 89.375 16.171875 88.65625 22.207031 86.21875 27.90625 C 83.78125 33.601562 79.78125 38.472656 74.21875 42.515625 C 68.644531 46.554688 62.773438 48.847656 56.609375 49.390625 C 50.441406 49.941406 44.476562 48.757812 38.71875 45.84375 C 32.96875 42.925781 27.910156 38.460938 23.546875 32.453125 L 6.1875 8.515625 Z M 30.265625 26.84375 C 33.597656 31.4375 37.421875 34.828125 41.734375 37.015625 C 46.054688 39.210938 50.507812 40.09375 55.09375 39.65625 C 59.6875 39.21875 64.097656 37.46875 68.328125 34.40625 C 72.535156 31.34375 75.5625 27.691406 77.40625 23.453125 C 79.257812 19.222656 79.8125 14.71875 79.0625 9.9375 C 78.3125 5.15625 76.269531 0.46875 72.9375 -4.125 L 61.796875 -19.46875 L 19.125 11.5 Z M 30.265625 26.84375 "/></g></g></g><g fill="#000000" fill-opacity="1"><g transform="translate(595.083621, 303.795649)"><g><path d="M 43.5625 45.34375 C 42.863281 45.59375 41.925781 45.847656 40.75 46.109375 L 26.59375 5.390625 C 22.375 7.503906 19.5 10.679688 17.96875 14.921875 C 16.4375 19.171875 16.523438 23.757812 18.234375 28.6875 C 20.316406 34.6875 24.019531 38.8125 29.34375 41.0625 L 25.203125 48.140625 C 21.765625 46.773438 18.765625 44.640625 16.203125 41.734375 C 13.640625 38.835938 11.632812 35.3125 10.1875 31.15625 C 8.34375 25.851562 7.796875 20.769531 8.546875 15.90625 C 9.304688 11.050781 11.253906 6.820312 14.390625 3.21875 C 17.523438 -0.382812 21.550781 -3.039062 26.46875 -4.75 C 31.332031 -6.4375 36.097656 -6.867188 40.765625 -6.046875 C 45.441406 -5.222656 49.535156 -3.273438 53.046875 -0.203125 C 56.554688 2.859375 59.140625 6.785156 60.796875 11.578125 C 62.460938 16.378906 62.859375 21.03125 61.984375 25.53125 C 61.109375 30.039062 59.082031 34.03125 55.90625 37.5 C 52.726562 40.976562 48.613281 43.59375 43.5625 45.34375 Z M 53.125 14.234375 C 51.613281 9.867188 49.019531 6.679688 45.34375 4.671875 C 41.675781 2.660156 37.609375 2.144531 33.140625 3.125 L 44.328125 35.328125 C 48.390625 33.359375 51.25 30.4375 52.90625 26.5625 C 54.570312 22.695312 54.644531 18.585938 53.125 14.234375 Z M 53.125 14.234375 "/></g></g></g><g fill="#000000" fill-opacity="1"><g transform="translate(613.247668, 354.202945)"><g><path d="M 58.234375 50.84375 L 3.125 32.71875 L 2.1875 22.953125 L 52.875 -5.25 L 53.828125 4.734375 L 13.15625 26.9375 L 57.328125 41.453125 Z M 58.234375 50.84375 "/></g></g></g><g fill="#000000" fill-opacity="1"><g transform="translate(619.082422, 402.210179)"><g><path d="M 17.8125 60.3125 C 17.070312 60.207031 16.125 60 14.96875 59.6875 L 21.140625 17.03125 C 16.421875 16.957031 12.398438 18.453125 9.078125 21.515625 C 5.765625 24.585938 3.738281 28.703125 3 33.859375 C 2.082031 40.148438 3.46875 45.515625 7.15625 49.953125 L 0.234375 54.328125 C -2.191406 51.546875 -3.875 48.28125 -4.8125 44.53125 C -5.757812 40.78125 -5.914062 36.722656 -5.28125 32.359375 C -4.476562 26.804688 -2.628906 22.046875 0.265625 18.078125 C 3.171875 14.109375 6.84375 11.242188 11.28125 9.484375 C 15.726562 7.722656 20.523438 7.210938 25.671875 7.953125 C 30.765625 8.691406 35.195312 10.5 38.96875 13.375 C 42.75 16.257812 45.492188 19.867188 47.203125 24.203125 C 48.910156 28.546875 49.398438 33.226562 48.671875 38.25 C 47.941406 43.28125 46.148438 47.59375 43.296875 51.1875 C 40.441406 54.789062 36.800781 57.398438 32.375 59.015625 C 27.945312 60.640625 23.09375 61.070312 17.8125 60.3125 Z M 40.625 37.078125 C 41.28125 32.503906 40.441406 28.476562 38.109375 25 C 35.785156 21.53125 32.410156 19.207031 27.984375 18.03125 L 23.109375 51.765625 C 27.617188 51.878906 31.5 50.597656 34.75 47.921875 C 38.007812 45.253906 39.96875 41.640625 40.625 37.078125 Z M 40.625 37.078125 "/></g></g></g><g fill="#000000" fill-opacity="1"><g transform="translate(610.221722, 456.718482)"><g><path d="M 67.5625 32.4375 L 64.484375 41.5625 L -6 17.765625 L -2.921875 8.640625 Z M 67.5625 32.4375 "/></g></g></g><g fill="#000000" fill-opacity="1"><g transform="translate(605.308375, 478.254631)"><g><path d="M -16.140625 27.484375 C -13.546875 22.878906 -10.195312 19.316406 -6.09375 16.796875 C -2 14.273438 2.414062 12.984375 7.15625 12.921875 C 11.90625 12.867188 16.550781 14.117188 21.09375 16.671875 C 25.644531 19.234375 29.128906 22.554688 31.546875 26.640625 C 33.960938 30.722656 35.144531 35.160156 35.09375 39.953125 C 35.050781 44.753906 33.734375 49.457031 31.140625 54.0625 C 28.554688 58.664062 25.234375 62.222656 21.171875 64.734375 C 17.109375 67.242188 12.703125 68.53125 7.953125 68.59375 C 3.210938 68.65625 -1.429688 67.40625 -5.984375 64.84375 C -10.523438 62.289062 -14.003906 58.96875 -16.421875 54.875 C -18.835938 50.789062 -20.039062 46.351562 -20.03125 41.5625 C -20.019531 36.78125 -18.722656 32.085938 -16.140625 27.484375 Z M -8.8125 31.609375 C -10.476562 34.585938 -11.289062 37.640625 -11.25 40.765625 C -11.207031 43.898438 -10.320312 46.832031 -8.59375 49.5625 C -6.875 52.289062 -4.410156 54.554688 -1.203125 56.359375 C 2.003906 58.160156 5.21875 59.085938 8.4375 59.140625 C 11.664062 59.191406 14.613281 58.414062 17.28125 56.8125 C 19.957031 55.207031 22.128906 52.914062 23.796875 49.9375 C 25.472656 46.96875 26.300781 43.925781 26.28125 40.8125 C 26.257812 37.695312 25.394531 34.757812 23.6875 32 C 21.988281 29.25 19.535156 26.972656 16.328125 25.171875 C 13.117188 23.367188 9.890625 22.453125 6.640625 22.421875 C 3.398438 22.398438 0.4375 23.179688 -2.25 24.765625 C -4.945312 26.359375 -7.132812 28.640625 -8.8125 31.609375 Z M -8.8125 31.609375 "/></g></g></g><g fill="#000000" fill-opacity="1"><g transform="translate(579.580991, 527.017514)"><g><path d="M 11.84375 64.25 C 8.21875 67.90625 4.164062 70.378906 -0.3125 71.671875 C -4.800781 72.960938 -9.300781 72.992188 -13.8125 71.765625 C -18.332031 70.535156 -22.492188 68.035156 -26.296875 64.265625 C -30.085938 60.503906 -32.628906 56.359375 -33.921875 51.828125 C -35.222656 47.296875 -35.242188 42.78125 -33.984375 38.28125 C -32.734375 33.789062 -30.296875 29.71875 -26.671875 26.0625 C -23.992188 23.351562 -21.015625 21.390625 -17.734375 20.171875 C -14.460938 18.960938 -11.054688 18.554688 -7.515625 18.953125 L -27.015625 -0.375 L -20.234375 -7.203125 L 31.3125 43.875 L 24.828125 50.421875 L 18.859375 44.515625 C 19.429688 48.085938 19.097656 51.566406 17.859375 54.953125 C 16.617188 58.347656 14.613281 61.445312 11.84375 64.25 Z M -20.140625 31.40625 C -22.546875 33.832031 -24.140625 36.5625 -24.921875 39.59375 C -25.703125 42.625 -25.640625 45.691406 -24.734375 48.796875 C -23.828125 51.910156 -22.070312 54.765625 -19.46875 57.359375 C -16.851562 59.941406 -13.984375 61.675781 -10.859375 62.5625 C -7.734375 63.445312 -4.671875 63.46875 -1.671875 62.625 C 1.316406 61.789062 4.015625 60.160156 6.421875 57.734375 C 8.773438 55.367188 10.347656 52.671875 11.140625 49.640625 C 11.929688 46.617188 11.878906 43.554688 10.984375 40.453125 C 10.097656 37.359375 8.347656 34.519531 5.734375 31.9375 C 3.128906 29.34375 0.28125 27.597656 -2.8125 26.703125 C -5.914062 25.804688 -8.988281 25.773438 -12.03125 26.609375 C -15.082031 27.441406 -17.785156 29.039062 -20.140625 31.40625 Z M -20.140625 31.40625 "/></g></g></g><g fill="#000000" fill-opacity="1"><g transform="translate(537.93215, 569.98955)"><g><path d="M -36.234375 51.390625 C -36.609375 50.753906 -37.039062 49.882812 -37.53125 48.78125 L -0.234375 27.140625 C -3.109375 23.398438 -6.773438 21.175781 -11.234375 20.46875 C -15.703125 19.769531 -20.1875 20.726562 -24.6875 23.34375 C -30.1875 26.53125 -33.539062 30.953125 -34.75 36.609375 L -42.46875 33.90625 C -41.789062 30.269531 -40.269531 26.914062 -37.90625 23.84375 C -35.550781 20.78125 -32.46875 18.144531 -28.65625 15.9375 C -23.789062 13.113281 -18.898438 11.609375 -13.984375 11.421875 C -9.078125 11.234375 -4.554688 12.335938 -0.421875 14.734375 C 3.703125 17.128906 7.070312 20.578125 9.6875 25.078125 C 12.269531 29.535156 13.601562 34.132812 13.6875 38.875 C 13.769531 43.613281 12.640625 47.992188 10.296875 52.015625 C 7.960938 56.046875 4.601562 59.335938 0.21875 61.890625 C -4.175781 64.441406 -8.671875 65.710938 -13.265625 65.703125 C -17.867188 65.703125 -22.175781 64.472656 -26.1875 62.015625 C -30.207031 59.554688 -33.554688 56.015625 -36.234375 51.390625 Z M -3.859375 54.875 C 0.128906 52.550781 2.757812 49.394531 4.03125 45.40625 C 5.3125 41.414062 5.050781 37.320312 3.25 33.125 L -26.25 50.234375 C -23.550781 53.847656 -20.140625 56.101562 -16.015625 57 C -11.898438 57.894531 -7.847656 57.1875 -3.859375 54.875 Z M -3.859375 54.875 "/></g></g></g><g fill="#000000" fill-opacity="1"><g transform="translate(490.700512, 597.009361)"><g><path d="M -3.640625 47.71875 C -4.273438 51.164062 -5.894531 54.160156 -8.5 56.703125 C -11.101562 59.253906 -14.628906 61.257812 -19.078125 62.71875 L -22 53.859375 C -21.46875 53.742188 -20.757812 53.539062 -19.875 53.25 C -14.925781 51.625 -11.519531 48.875 -9.65625 45 C -7.800781 41.125 -7.769531 36.457031 -9.5625 31 L -17.8125 5.84375 L -8.671875 2.84375 L 7.890625 53.3125 L -0.859375 56.1875 Z M -3.640625 47.71875 "/></g></g></g><g fill="#000000" fill-opacity="1"><g transform="translate(456.017875, 608.216596)"><g/></g></g><g fill="#000000" fill-opacity="1"><g transform="translate(432.842897, 612.466256)"><g><path d="M -11.4375 0.28125 C -9.570312 0.144531 -7.921875 0.671875 -6.484375 1.859375 C -5.054688 3.054688 -4.265625 4.65625 -4.109375 6.65625 C -3.953125 8.582031 -4.488281 10.242188 -5.71875 11.640625 C -6.957031 13.046875 -8.507812 13.816406 -10.375 13.953125 C -12.238281 14.097656 -13.851562 13.585938 -15.21875 12.421875 C -16.59375 11.265625 -17.359375 9.6875 -17.515625 7.6875 C -17.671875 5.6875 -17.144531 3.988281 -15.9375 2.59375 C -14.738281 1.195312 -13.238281 0.425781 -11.4375 0.28125 Z M -11.4375 0.28125 "/></g></g></g></svg>